<svg width="39" height="39" viewBox="0 0 39 39" fill="none" xmlns="http://www.w3.org/2000/svg">
<path d="M36.5625 24.375H31.6875V26.8125H36.5625V29.25H32.9062C32.2598 29.25 31.6398 29.5068 31.1827 29.9639C30.7256 30.4211 30.4688 31.041 30.4688 31.6875V34.125C30.4688 34.7715 30.7256 35.3915 31.1827 35.8486C31.6398 36.3057 32.2598 36.5625 32.9062 36.5625H39V26.8125C39 25.4682 37.9068 24.375 36.5625 24.375ZM36.5625 34.125H32.9062V31.6875H36.5625V34.125ZM29.25 26.8125V24.375H25.5938V21.9375H23.1562V24.375H20.7188V26.8125H23.1562V34.125C23.1562 35.4693 24.2495 36.5625 25.5938 36.5625H29.25V34.125H25.5938V26.8125H29.25ZM17.0625 24.375H12.1875V26.8125H17.0625V29.25H13.4062C12.7598 29.25 12.1398 29.5068 11.6827 29.9639C11.2256 30.4211 10.9688 31.041 10.9688 31.6875V34.125C10.9688 34.7715 11.2256 35.3915 11.6827 35.8486C12.1398 36.3057 12.7598 36.5625 13.4062 36.5625H19.5V26.8125C19.5 25.4682 18.4068 24.375 17.0625 24.375ZM17.0625 34.125H13.4062V31.6875H17.0625V34.125ZM6.09375 19.5V24.375H2.4375C1.09322 24.375 0 25.4682 0 26.8125V34.125C0 35.4693 1.09322 36.5625 2.4375 36.5625H8.53125V19.5H6.09375ZM2.4375 26.8125H6.09375V34.125H2.4375V26.8125ZM4.875 17.0625V6.09376H14.1204L18.9954 10.9688H34.125V20.7188H36.5625V10.9688C36.5619 10.3225 36.3048 9.70288 35.8479 9.2459C35.3909 8.78892 34.7713 8.5319 34.125 8.53126H20.0046L15.8438 4.37045C15.618 4.14338 15.3494 3.96335 15.0536 3.84076C14.7578 3.71817 14.4406 3.65546 14.1204 3.65626H4.875C4.22873 3.6569 3.60912 3.91392 3.15214 4.3709C2.69516 4.82788 2.43815 5.44749 2.4375 6.09376V17.0625H4.875Z" fill="#29AAE3"/>
</svg>
