<svg width="33" height="33" viewBox="0 0 33 33" fill="none" xmlns="http://www.w3.org/2000/svg">
<path d="M31.2104 0.482422H1.75129C1.04283 0.482422 0.470459 1.05479 0.470459 1.76325V31.2224C0.470459 31.9308 1.04283 32.5032 1.75129 32.5032H31.2104C31.9189 32.5032 32.4912 31.9308 32.4912 31.2224V1.76325C32.4912 1.05479 31.9189 0.482422 31.2104 0.482422ZM27.512 9.82849H24.9543C22.949 9.82849 22.5608 10.7811 22.5608 12.182V15.268H27.3479L26.7235 20.0991H22.5608V32.5032H17.5696V20.1032H13.3948V15.268H17.5696V11.7057C17.5696 7.57102 20.0952 5.31756 23.7856 5.31756C25.5547 5.31756 27.0717 5.44965 27.516 5.50968V9.82849H27.512Z" fill="white"/>
</svg>
