<?xml version="1.0" encoding="UTF-8"?>
<!DOCTYPE svg PUBLIC "-//W3C//DTD SVG 1.1//EN" "http://www.w3.org/Graphics/SVG/1.1/DTD/svg11.dtd">
<!-- Creator: CorelDRAW 2018 (64 Bit) -->
<svg xmlns="http://www.w3.org/2000/svg" xml:space="preserve" width="1920px" height="1080px" version="1.1" style="shape-rendering:geometricPrecision; text-rendering:geometricPrecision; image-rendering:optimizeQuality; fill-rule:evenodd; clip-rule:evenodd"
viewBox="0 0 1920 1080"
 xmlns:xlink="http://www.w3.org/1999/xlink">
 <defs>
  <style type="text/css">
   <![CDATA[
    .fil1 {fill:none}
    .fil0 {fill:#004467}
   ]]>
  </style>
 </defs>
 <g id="Camada_x0020_1">
  <metadata id="CorelCorpID_0Corel-Layer"/>
  <path class="fil0" d="M898.05 612l0 -29.56c2.42,0 4.03,0.49 6.12,1.49 1.84,0.88 2.77,1.47 4.12,2.82 5.51,5.51 4.86,15.83 -0.1,20.83 -2.06,2.07 -6.15,4.42 -10.14,4.42zm-20.16 -14.78c0,-4.32 1.77,-8.15 3.97,-10.36 2.02,-2.03 6.2,-4.42 10.14,-4.42l0 29.56c-8.5,0 -14.11,-6.58 -14.11,-14.78zm14.11 -17.91l0 0.67c-7.42,0 -15.94,3.63 -19.04,9.62 -2.52,4.89 -2.64,10.08 -0.22,15.02 3.41,6.97 10.82,9.84 19.26,9.84 0,3.42 -0.09,3.66 -3.33,4.74 -2.63,0.87 -2.45,0.61 -4.09,1.05 -1.55,0.42 -0.33,-0.14 -1.31,0.48l23.51 0 -1.08 -0.48c-5.53,-1.88 -7.65,-0.61 -7.65,-5.79 3.21,0 5.74,-0.53 8.42,-1.42 5.78,-1.93 10.11,-5.55 11.83,-11.46 1.15,-3.94 0.85,-7.87 -0.77,-11.52 -3.08,-6.92 -12.24,-10.08 -19.48,-10.08 0,-1.21 -0.01,-2.13 1.17,-3.09 0.7,-0.57 1.58,-0.67 2.46,-0.9l3.99 -1.15c0.58,-0.23 0.76,-0.2 1.11,-0.68l-23.51 0c2.03,1.76 8.73,0.82 8.73,5.15z"/>
  <rect class="fil1" x="871" y="573.45" width="48" height="48"/>
 </g>
</svg>
