<svg width="35" height="41" viewBox="0 0 35 41" fill="none" xmlns="http://www.w3.org/2000/svg">
<path d="M14.5833 21.2772L10.8062 17.5001L8.75 19.5563L14.5833 25.3897L26.25 13.723L24.1937 11.6667L14.5833 21.2772Z" fill="#29AAE3"/>
<path d="M17.5 40.8333L8.49334 36.031C5.9257 34.665 3.7785 32.6256 2.28218 30.1317C0.785867 27.6377 -0.00308155 24.7834 9.04542e-06 21.875V2.91666C0.000781198 2.14335 0.30832 1.40194 0.855134 0.855124C1.40195 0.308311 2.14336 0.000772153 2.91667 0H32.0833C32.8566 0.000772153 33.5981 0.308311 34.1449 0.855124C34.6917 1.40194 34.9992 2.14335 35 2.91666V21.875C35.0031 24.7834 34.2141 27.6377 32.7178 30.1317C31.2215 32.6256 29.0743 34.665 26.5067 36.031L17.5 40.8333ZM2.91667 2.91666V21.875C2.91425 24.2547 3.55995 26.5901 4.78445 28.6306C6.00896 30.6711 7.76604 32.3396 9.86709 33.4571L17.5 37.5273L25.1329 33.4585C27.2342 32.341 28.9914 30.6723 30.2159 28.6315C31.4404 26.5907 32.086 24.2549 32.0833 21.875V2.91666H2.91667Z" fill="#29AAE3"/>
</svg>
