<svg width="33" height="33" viewBox="0 0 33 33" fill="none" xmlns="http://www.w3.org/2000/svg">
<path d="M31.198 0.482422H1.73884C1.03038 0.482422 0.458008 1.05479 0.458008 1.76325V31.2224C0.458008 31.9308 1.03038 32.5032 1.73884 32.5032H31.198C31.9064 32.5032 32.4788 31.9308 32.4788 31.2224V1.76325C32.4788 1.05479 31.9064 0.482422 31.198 0.482422ZM9.95617 27.7681H5.20509V12.4862H9.95617V27.7681ZM7.58263 10.3969C7.03798 10.3969 6.50557 10.2353 6.05271 9.93276C5.59985 9.63017 5.24689 9.20008 5.03846 8.6969C4.83004 8.19371 4.7755 7.64001 4.88176 7.10583C4.98801 6.57165 5.25029 6.08097 5.63541 5.69585C6.02053 5.31072 6.51121 5.04845 7.04539 4.94219C7.57958 4.83594 8.13327 4.89047 8.63646 5.0989C9.13965 5.30733 9.56973 5.66029 9.87232 6.11315C10.1749 6.566 10.3364 7.09842 10.3364 7.64307C10.3324 9.16405 9.09962 10.3969 7.58263 10.3969ZM27.7437 27.7681H22.9966V20.3353C22.9966 18.5622 22.9646 16.2847 20.527 16.2847C18.0574 16.2847 17.6772 18.2139 17.6772 20.2072V27.7681H12.9341V12.4862H17.4891V14.5756H17.5531C18.1855 13.3748 19.7345 12.106 22.048 12.106C26.8591 12.106 27.7437 15.272 27.7437 19.3867V27.7681Z" fill="white"/>
</svg>
