<?xml version="1.0" encoding="UTF-8"?>
<svg id="Layer_1" data-name="Layer 1" xmlns="http://www.w3.org/2000/svg" xmlns:xlink="http://www.w3.org/1999/xlink" viewBox="0 0 2520.24 784.11">
  <defs>
    <style>
      .cls-1 {
        fill: url(#linear-gradient-2);
      }

      .cls-2 {
        fill: #f2f2f2;
      }

      .cls-3 {
        fill: #0c1c45;
      }

      .cls-4 {
        fill: url(#linear-gradient);
      }
    </style>
    <linearGradient id="linear-gradient" x1="1624.43" y1="805.41" x2="1624.43" y2="254.64" gradientUnits="userSpaceOnUse">
      <stop offset=".03" stop-color="#1a366c"/>
      <stop offset=".12" stop-color="#295094"/>
      <stop offset=".29" stop-color="#1a366c"/>
      <stop offset=".44" stop-color="#0c1c45"/>
      <stop offset=".57" stop-color="#1a366c"/>
      <stop offset=".66" stop-color="#295094"/>
      <stop offset=".76" stop-color="#1e3d77"/>
      <stop offset=".88" stop-color="#1a366c"/>
      <stop offset="1" stop-color="#0c1c45"/>
    </linearGradient>
    <linearGradient id="linear-gradient-2" x1="370.74" y1="772.94" x2="370.74" y2="57.22" gradientUnits="userSpaceOnUse">
      <stop offset="0" stop-color="#0c1c45"/>
      <stop offset=".12" stop-color="#1a366c"/>
      <stop offset=".25" stop-color="#295094"/>
      <stop offset=".37" stop-color="#1a366c"/>
      <stop offset=".51" stop-color="#0c1c45"/>
      <stop offset=".62" stop-color="#1a366c"/>
      <stop offset=".73" stop-color="#295094"/>
      <stop offset=".8" stop-color="#1e3d77"/>
      <stop offset=".88" stop-color="#1a366c"/>
      <stop offset=".97" stop-color="#0c1c45"/>
    </linearGradient>
  </defs>
  <g>
    <g>
      <path class="cls-2" d="M1416.29,674.95v-387.33l-71.26-28.14h194.27l-71.26,28.14v375.21c0,13.9,11.27,25.16,25.16,25.16h100.7c18.37-2.76,28.1-10.81,32.38-15.09,7.14-7.13,10.93-16.35,18.23-34.5,4.08-10.16,6.93-18.73,8.74-24.56v103.21h-308.92c19.95-8.06,39.91-16.12,59.86-24.18,7.31-2.95,12.1-10.05,12.1-17.93Z"/>
      <path class="cls-2" d="M1150.68,701.16l-51.25,15.9h200.65l-50.25-15.59c-13.85-4.3-23.29-17.11-23.29-31.61v-366.24c0-12.64,8.16-23.84,20.19-27.71l51.06-16.43h-196.09l51.06,16.43c12.03,3.87,20.19,15.07,20.19,27.71v367.29c0,13.88-9.04,26.14-22.29,30.26Z"/>
      <path class="cls-2" d="M764.09,259.48l51.91,15.1c14.09,4.1,23.79,17.01,23.79,31.69v365.16c0,13.38-8.68,25.21-21.44,29.23l-52.1,16.41h201.53l-52.09-16.41c-12.76-4.02-21.44-15.85-21.44-29.23v-173.18h94.8c16.72,0,31.62,10.52,37.23,26.26l14.14,39.68v-144.93l-14.33,30.46c-5.59,11.89-17.55,19.48-30.69,19.48h-101.15v-169.27c0-6.8,5.51-12.31,12.31-12.31h98.33s22.7,2.33,35.81,21.22c7.57,10.91,19.7,47.54,19.7,47.54v-96.9h-296.32Z"/>
      <path class="cls-2" d="M2180.45,469.2c-5.58-76.02-48-142.14-110-181.58-18.89-12.01-39.59-21.56-61.63-28.14-22.72-6.79-46.85-10.45-71.85-10.45s-49.13,3.66-71.85,10.45c-22.05,6.59-42.74,16.13-61.63,28.14-61.99,39.44-104.41,105.56-109.99,181.58-.41,5.65-.63,11.37-.63,17.13,0,4,.11,7.97.31,11.92,4.08,80.16,49.06,149.84,115.07,189.75,21.76,13.16,45.81,23.07,71.42,29.06,18.38,4.29,37.57,6.57,57.3,6.57s38.91-2.27,57.3-6.57c25.63-5.99,49.67-15.9,71.44-29.06,66.02-39.91,111-109.59,115.07-189.75.2-3.95.31-7.92.31-11.92,0-5.76-.21-11.48-.63-17.13ZM2130.4,498.25c-2.13,107.58-71.38,176.14-160.22,189.75-10.82,1.65-21.91,2.5-33.22,2.5-9.93,0-19.67-.86-29.2-2.5-89.95-15.49-159.89-100.63-164.04-189.75-.15-3.08-.21-6.17-.2-9.25,0-6.74.23-13.34.69-19.79,7.22-101.81,70.29-166.69,153.5-181.58,12.16-2.19,24.76-3.29,37.67-3.29,11.77,0,23.29,1.13,34.47,3.29,84.29,16.32,149.67,91.23,159.35,181.58.69,6.53,1.1,13.13,1.21,19.79.05,3.11.05,6.2-.02,9.25Z"/>
      <path class="cls-2" d="M2484.77,605.19c0,2.39-.08,4.78-.21,7.14v.05c-1.15,18.74-6.71,36.22-15.63,51.32-.02.03-.03.05-.05.06-3.32,4.52-7.12,8.87-11.35,13.02-4.03,3.94-8.44,7.69-13.21,11.21-17.33,12.87-39.33,22.93-64.25,29.03-.89.02-1.79.03-2.68.03h2.56c-17.4,4.24-36.22,6.57-55.87,6.57s-38.47-2.33-55.87-6.57c-11.7-2.85-22.75-6.59-32.99-11.08l-2.72-114.9,15.7,44.56c.93,2.45,2.01,4.87,3.2,7.22,10.13,20.02,29.23,36.03,53.01,44.38.26.25.52.51.78.75h1.44c11.03,3.62,23.01,5.59,35.53,5.59s24.5-1.98,35.53-5.59c36.97-12.09,63.2-42.51,63.2-78.15,0-26.57-14.59-50.25-37.32-65.59-4.61-3.13-9.58-5.9-14.81-8.27l-40.86-22.81-16.36-9.15-10.36-5.78-13.37-7.46s-.03-.02-.03-.02c-16.57-10.42-25.51-15.56-36.86-24.2-14.03-10.63-27.22-20.7-35.68-34.85-10-16.7-15.6-35.44-15.6-55.22s5.59-38.52,15.6-55.23c7.48-12.49,17.4-23.85,29.29-33.66,14.34-11.87,31.53-21.48,50.67-28.14,19.27-6.73,40.54-10.45,62.89-10.45,8.26,0,16.38.51,24.3,1.49,13.51,1.67,26.46,4.72,38.61,8.96,5.71,1.98,11.23,4.23,16.56,6.73v108.9l-33.98-76.74c-6.34-4.26-13.3-7.89-20.76-10.74-12.38-4.75-26.12-7.38-40.58-7.38s-28.21,2.64-40.58,7.38c-34.29,13.13-58.14,42.39-58.14,76.37,0,26.61,14.63,50.31,37.43,65.66,2.59,1.75,5.29,3.39,8.09,4.9.03.02.08.05.12.06l57.04,34.58,47.94,29.05,3.02,1.82,8.5,5.16s.06.03.09.05l11.09,6.73c7.66,5.3,14.63,11.61,20.73,18.75,16.96,19.76,27.24,45.84,27.24,74.43Z"/>
      <path class="cls-2" d="M2307.75,490.77c-19.98-12.64-25.51-15.56-36.86-24.2-14.03-10.63-27.22-20.7-35.68-34.85"/>
    </g>
    <g>
      <path class="cls-4" d="M1416.29,674.95v-387.33l-71.26-28.14h194.27l-71.26,28.14v375.21c0,13.9,11.27,25.16,25.16,25.16h100.7c18.37-2.76,28.1-10.81,32.38-15.09,7.14-7.13,10.93-16.35,18.23-34.5,4.08-10.16,6.93-18.73,8.74-24.56v103.21h-308.92c19.95-8.06,39.91-16.12,59.86-24.18,7.31-2.95,12.1-10.05,12.1-17.93Z"/>
      <path class="cls-4" d="M1150.68,701.16l-51.25,15.9h200.65l-50.25-15.59c-13.85-4.3-23.29-17.11-23.29-31.61v-366.24c0-12.64,8.16-23.84,20.19-27.71l51.06-16.43h-196.09l51.06,16.43c12.03,3.87,20.19,15.07,20.19,27.71v367.29c0,13.88-9.04,26.14-22.29,30.26Z"/>
      <path class="cls-4" d="M764.09,259.48l51.91,15.1c14.09,4.1,23.79,17.01,23.79,31.69v365.16c0,13.38-8.68,25.21-21.44,29.23l-52.1,16.41h201.53l-52.09-16.41c-12.76-4.02-21.44-15.85-21.44-29.23v-173.18h94.8c16.72,0,31.62,10.52,37.23,26.26l14.14,39.68v-144.93l-14.33,30.46c-5.59,11.89-17.55,19.48-30.69,19.48h-101.15v-169.27c0-6.8,5.51-12.31,12.31-12.31h98.33s22.7,2.33,35.81,21.22c7.57,10.91,19.7,47.54,19.7,47.54v-96.9h-296.32Z"/>
      <path class="cls-4" d="M2180.45,469.2c-5.58-76.02-48-142.14-110-181.58-18.89-12.01-39.59-21.56-61.63-28.14-22.72-6.79-46.85-10.45-71.85-10.45s-49.13,3.66-71.85,10.45c-22.05,6.59-42.74,16.13-61.63,28.14-61.99,39.44-104.41,105.56-109.99,181.58-.41,5.65-.63,11.37-.63,17.13,0,4,.11,7.97.31,11.92,4.08,80.16,49.06,149.84,115.07,189.75,21.76,13.16,45.81,23.07,71.42,29.06,18.38,4.29,37.57,6.57,57.3,6.57s38.91-2.27,57.3-6.57c25.63-5.99,49.67-15.9,71.44-29.06,66.02-39.91,111-109.59,115.07-189.75.2-3.95.31-7.92.31-11.92,0-5.76-.21-11.48-.63-17.13ZM2130.4,498.25c-2.13,107.58-71.38,176.14-160.22,189.75-10.82,1.65-21.91,2.5-33.22,2.5-9.93,0-19.67-.86-29.2-2.5-89.95-15.49-159.89-100.63-164.04-189.75-.15-3.08-.21-6.17-.2-9.25,0-6.74.23-13.34.69-19.79,7.22-101.81,70.29-166.69,153.5-181.58,12.16-2.19,24.76-3.29,37.67-3.29,11.77,0,23.29,1.13,34.47,3.29,84.29,16.32,149.67,91.23,159.35,181.58.69,6.53,1.1,13.13,1.21,19.79.05,3.11.05,6.2-.02,9.25Z"/>
      <path class="cls-4" d="M2484.77,605.19c0,2.39-.08,4.78-.21,7.14v.05c-1.15,18.74-6.71,36.22-15.63,51.32-.02.03-.03.05-.05.06-3.32,4.52-7.12,8.87-11.35,13.02-4.03,3.94-8.44,7.69-13.21,11.21-17.33,12.87-39.33,22.93-64.25,29.03-.89.02-1.79.03-2.68.03h2.56c-17.4,4.24-36.22,6.57-55.87,6.57s-38.47-2.33-55.87-6.57c-11.7-2.85-22.75-6.59-32.99-11.08l-2.72-114.9,15.7,44.56c.93,2.45,2.01,4.87,3.2,7.22,10.13,20.02,29.23,36.03,53.01,44.38.26.25.52.51.78.75h1.44c11.03,3.62,23.01,5.59,35.53,5.59s24.5-1.98,35.53-5.59c36.97-12.09,63.2-42.51,63.2-78.15,0-26.57-14.59-50.25-37.32-65.59-4.61-3.13-9.58-5.9-14.81-8.27l-40.86-22.81-16.36-9.15-10.36-5.78-13.37-7.46s-.03-.02-.03-.02c-16.57-10.42-25.51-15.56-36.86-24.2-14.03-10.63-27.22-20.7-35.68-34.85-10-16.7-15.6-35.44-15.6-55.22s5.59-38.52,15.6-55.23c7.48-12.49,17.4-23.85,29.29-33.66,14.34-11.87,31.53-21.48,50.67-28.14,19.27-6.73,40.54-10.45,62.89-10.45,8.26,0,16.38.51,24.3,1.49,13.51,1.67,26.46,4.72,38.61,8.96,5.71,1.98,11.23,4.23,16.56,6.73v108.9l-33.98-76.74c-6.34-4.26-13.3-7.89-20.76-10.74-12.38-4.75-26.12-7.38-40.58-7.38s-28.21,2.64-40.58,7.38c-34.29,13.13-58.14,42.39-58.14,76.37,0,26.61,14.63,50.31,37.43,65.66,2.59,1.75,5.29,3.39,8.09,4.9.03.02.08.05.12.06l57.04,34.58,47.94,29.05,3.02,1.82,8.5,5.16s.06.03.09.05l11.09,6.73c7.66,5.3,14.63,11.61,20.73,18.75,16.96,19.76,27.24,45.84,27.24,74.43Z"/>
      <path class="cls-4" d="M2307.75,490.77c-19.98-12.64-25.51-15.56-36.86-24.2-14.03-10.63-27.22-20.7-35.68-34.85"/>
    </g>
  </g>
  <g>
    <path class="cls-3" d="M856.86,215.94c-5.54,2.77-16.61,5.54-30.81,5.54-32.88,0-57.63-20.77-57.63-59.01s24.75-61.26,60.92-61.26c14.54,0,23.71,3.11,27.69,5.19l-3.63,12.29c-5.71-2.77-13.84-4.85-23.54-4.85-27.34,0-45.52,17.48-45.52,48.11,0,28.56,16.44,46.9,44.82,46.9,9.17,0,18.52-1.9,24.58-4.85l3.11,11.94Z"/>
    <path class="cls-3" d="M971.76,160.21c0,40.15-24.4,61.44-54.17,61.44s-52.44-23.88-52.44-59.19c0-37.04,23.02-61.26,54.17-61.26s52.44,24.4,52.44,59.01ZM881.25,162.12c0,24.92,13.5,47.25,37.21,47.25s37.38-21.98,37.38-48.46c0-23.19-12.12-47.42-37.21-47.42s-37.38,23.02-37.38,48.63Z"/>
    <path class="cls-3" d="M991.31,103.1h15.06v104.01h49.84v12.63h-64.9v-116.64Z"/>
    <path class="cls-3" d="M1133.39,165.06h-45.34v42.05h50.53v12.63h-65.59v-116.64h62.99v12.63h-47.94v36.86h45.34v12.46ZM1130.44,76.63l-21.98,20.25h-12.46l16.09-20.25h18.34Z"/>
    <path class="cls-3" d="M1246.91,214.56c-6.75,2.42-20.07,6.4-35.82,6.4-17.65,0-32.19-4.5-43.61-15.4-10.04-9.69-16.27-25.27-16.27-43.44.17-34.79,24.06-60.23,63.17-60.23,13.5,0,24.06,2.94,29.07,5.37l-3.63,12.29c-6.23-2.77-14.02-5.02-25.79-5.02-28.38,0-46.9,17.65-46.9,46.9s17.83,47.07,45,47.07c9.86,0,16.61-1.38,20.08-3.12v-34.79h-23.71v-12.11h38.42v56.07Z"/>
    <path class="cls-3" d="M1284.98,103.1v116.64h-15.06v-116.64h15.06Z"/>
    <path class="cls-3" d="M1410.96,160.21c0,40.15-24.4,61.44-54.17,61.44s-52.44-23.88-52.44-59.19c0-37.04,23.02-61.26,54.17-61.26s52.44,24.4,52.44,59.01ZM1320.45,162.12c0,24.92,13.5,47.25,37.21,47.25s37.38-21.98,37.38-48.46c0-23.19-12.11-47.42-37.21-47.42s-37.38,23.02-37.38,48.63Z"/>
    <path class="cls-3" d="M1527.59,165.06h-45.34v42.05h50.53v12.63h-65.59v-116.64h63v12.63h-47.94v36.86h45.34v12.46Z"/>
    <path class="cls-3" d="M1589.02,103.1h62.82v12.63h-47.76v38.77h44.13v12.46h-44.13v52.78h-15.06v-116.64Z"/>
    <path class="cls-3" d="M1678.66,183.06l-12.11,36.69h-15.57l39.63-116.64h18.17l39.81,116.64h-16.1l-12.46-36.69h-41.36ZM1716.91,171.29l-11.42-33.57c-2.6-7.61-4.33-14.54-6.06-21.29h-.35c-1.73,6.92-3.64,14.02-5.88,21.11l-11.42,33.75h35.13Z"/>
    <path class="cls-3" d="M1844.62,215.94c-5.54,2.77-16.61,5.54-30.81,5.54-32.88,0-57.63-20.77-57.63-59.01s24.75-61.26,60.92-61.26c14.54,0,23.71,3.11,27.69,5.19l-3.63,12.29c-5.71-2.77-13.85-4.85-23.54-4.85-27.34,0-45.52,17.48-45.52,48.11,0,28.56,16.44,46.9,44.82,46.9,9.17,0,18.52-1.9,24.57-4.85l3.12,11.94Z"/>
    <path class="cls-3" d="M1878.54,103.1v69.05c0,26.13,11.6,37.21,27.17,37.21,17.31,0,28.38-11.42,28.38-37.21v-69.05h15.23v68.01c0,35.82-18.86,50.53-44.13,50.53-23.88,0-41.88-13.67-41.88-49.84v-68.71h15.23Z"/>
    <path class="cls-3" d="M1975.44,103.1h15.06v104.01h49.84v12.63h-64.9v-116.64Z"/>
    <path class="cls-3" d="M2057.12,104.66c9.17-1.38,20.08-2.42,32.02-2.42,21.63,0,37.04,5.02,47.25,14.54,10.38,9.52,16.44,23.02,16.44,41.88s-5.88,34.61-16.79,45.34c-10.9,10.9-28.9,16.79-51.57,16.79-10.73,0-19.73-.52-27.34-1.38v-114.74ZM2072.18,207.81c3.81.69,9.34.87,15.23.87,32.19,0,49.67-18,49.67-49.5.17-27.52-15.4-45-47.25-45-7.79,0-13.67.69-17.65,1.56v92.07Z"/>
    <path class="cls-3" d="M2188.81,183.06l-12.11,36.69h-15.57l39.63-116.64h18.17l39.81,116.64h-16.1l-12.46-36.69h-41.36ZM2227.06,171.29l-11.42-33.57c-2.6-7.61-4.33-14.54-6.06-21.29h-.35c-1.73,6.92-3.64,14.02-5.88,21.11l-11.42,33.75h35.13Z"/>
    <path class="cls-3" d="M2275.86,104.66c9.17-1.38,20.08-2.42,32.02-2.42,21.63,0,37.04,5.02,47.25,14.54,10.38,9.52,16.44,23.02,16.44,41.88s-5.88,34.61-16.79,45.34c-10.9,10.9-28.9,16.79-51.57,16.79-10.73,0-19.73-.52-27.34-1.38v-114.74ZM2290.91,207.81c3.81.69,9.34.87,15.23.87,32.19,0,49.67-18,49.67-49.5.17-27.52-15.4-45-47.25-45-7.79,0-13.67.69-17.65,1.56v92.07Z"/>
    <path class="cls-3" d="M2451.5,165.06h-45.34v42.05h50.53v12.63h-65.59v-116.64h63v12.63h-47.94v36.86h45.34v12.46Z"/>
  </g>
  <g>
    <g>
      <path class="cls-2" d="M205.54,60.48l87.13,24.06c21.74,6,36.8,25.78,36.8,48.33v520.62c0,17.85-11.9,33.5-29.1,38.27l-92.44,25.64h327.86l-92.41-26.69c-13.92-4.02-23.51-16.77-23.51-31.26V116.49c0-11.88,7.73-22.38,19.08-25.91l96.85-30.1H205.54"/>
      <path class="cls-2" d="M126.79,378.41c0,235.14,225.15,218.79,225.15,218.79v29.06s-232.8,21.92-300.48-152.07c-24.87-63.89-20.62-135.88,12.1-196.12,83.07-152.99,291.11-133.9,291.11-133.9l.9.23v21.85c-92,12-228.78,56.09-228.78,212.16Z"/>
      <path class="cls-2" d="M614.7,392.16c0-235.14-225.15-218.79-225.15-218.79v-29.06s232.8-21.92,300.48,152.07c24.87,63.89,20.62,135.88-12.1,196.12-83.07,152.99-291.11,133.9-291.11,133.9l-.9-.23v-21.85c92-12,228.78-56.09,228.78-212.16Z"/>
    </g>
    <g>
      <path class="cls-1" d="M205.54,60.48l87.13,24.06c21.74,6,36.8,25.78,36.8,48.33v520.62c0,17.85-11.9,33.5-29.1,38.27l-92.44,25.64h327.86l-92.41-26.69c-13.92-4.02-23.51-16.77-23.51-31.26V116.49c0-11.88,7.73-22.38,19.08-25.91l96.85-30.1H205.54"/>
      <path class="cls-1" d="M126.79,378.41c0,235.14,225.15,218.79,225.15,218.79v29.06s-232.8,21.92-300.48-152.07c-24.87-63.89-20.62-135.88,12.1-196.12,83.07-152.99,291.11-133.9,291.11-133.9l.9.23v21.85c-92,12-228.78,56.09-228.78,212.16Z"/>
      <path class="cls-1" d="M614.7,392.16c0-235.14-225.15-218.79-225.15-218.79v-29.06s232.8-21.92,300.48,152.07c24.87,63.89,20.62,135.88-12.1,196.12-83.07,152.99-291.11,133.9-291.11,133.9l-.9-.23v-21.85c92-12,228.78-56.09,228.78-212.16Z"/>
    </g>
  </g>
</svg>