<svg width="41" height="40" viewBox="0 0 41 40" fill="none" xmlns="http://www.w3.org/2000/svg">
<path d="M41 24.7387C41 23.7268 40.5885 22.7563 39.856 22.0408C39.1234 21.3253 38.1299 20.9233 37.094 20.9233H25.376C24.34 20.9233 23.3465 21.3253 22.614 22.0408C21.8815 22.7563 21.4699 23.7268 21.4699 24.7387H15.6109V19.0156H20.1614C21.8586 19.0184 23.5014 18.4312 24.7959 17.3592C26.0904 16.2871 26.9522 14.8001 27.227 13.1642C27.5018 11.5283 27.1718 9.85027 26.2959 8.43031C25.42 7.01036 24.0555 5.94115 22.4464 5.41397C21.5534 3.59489 20.0928 2.09925 18.2747 1.14204C16.4567 0.184821 14.3747 -0.184666 12.3281 0.0866846C10.2815 0.358036 8.37564 1.25625 6.88456 2.65221C5.39348 4.04818 4.39393 5.86999 4.0296 7.85578C2.70699 8.2804 1.5824 9.15117 0.857332 10.3121C0.132261 11.473 -0.145905 12.8482 0.0726756 14.1912C0.291257 15.5342 0.992299 16.7573 2.05019 17.6414C3.10808 18.5254 4.45369 19.0126 5.84589 19.0156H11.7049V34.277C11.7049 34.7829 11.9107 35.2682 12.2769 35.6259C12.6432 35.9837 13.1399 36.1847 13.6579 36.1847H21.4699C21.4699 37.1966 21.8815 38.167 22.614 38.8825C23.3465 39.598 24.34 40 25.376 40H37.094C38.1299 40 39.1234 39.598 39.856 38.8825C40.5885 38.167 41 37.1966 41 36.1847V32.3693C40.9929 31.6975 40.8042 31.0394 40.4532 30.4617C40.8042 29.8839 40.9929 29.2258 41 28.554V24.7387ZM5.84589 15.2003C5.32792 15.2003 4.83117 14.9993 4.46491 14.6416C4.09865 14.2838 3.89289 13.7986 3.89289 13.2926C3.89289 12.7867 4.09865 12.3015 4.46491 11.9437C4.83117 11.586 5.32792 11.385 5.84589 11.385C6.36386 11.385 6.86062 11.184 7.22688 10.8262C7.59314 10.4685 7.7989 9.98325 7.7989 9.4773C7.78314 8.11591 8.26478 6.79362 9.15732 5.74788C10.0499 4.70215 11.2948 4.00147 12.6687 3.77169C14.0425 3.5419 15.4552 3.79806 16.6531 4.49415C17.851 5.19024 18.7556 6.28068 19.2045 7.56963C19.319 7.89389 19.521 8.18198 19.7891 8.40355C20.0572 8.62513 20.3814 8.772 20.7278 8.82869C21.4949 8.95273 22.1903 9.34354 22.6856 9.92903C23.1809 10.5145 23.4428 11.2552 23.4229 12.0145C23.4229 12.8594 23.0793 13.6698 22.4677 14.2672C21.856 14.8647 21.0264 15.2003 20.1614 15.2003H5.84589ZM21.4699 32.3693H15.6109V28.554H21.4699C21.4771 29.2258 21.6657 29.8839 22.0168 30.4617C21.6657 31.0394 21.4771 31.6975 21.4699 32.3693ZM25.376 36.1847V32.3693H37.094V36.1847H25.376ZM25.376 28.554V24.7387H37.094V28.554H25.376Z" fill="#29AAE3"/>
</svg>
