<svg width="49" height="49" viewBox="0 0 49 49" fill="none" xmlns="http://www.w3.org/2000/svg">
<path d="M25.7515 46.7679C24.9494 47.0774 24.0608 47.0774 23.2587 46.7679C16.9943 44.3115 11.6153 40.0247 7.82323 34.4662C4.03113 28.9078 2.00186 22.3357 2 15.6069V5.46232C2 4.54406 2.36478 3.6634 3.01409 3.01409C3.6634 2.36478 4.54406 2 5.46232 2H43.5479C44.4662 2 45.3468 2.36478 45.9961 3.01409C46.6454 3.6634 47.0102 4.54406 47.0102 5.46232V15.5723C47.0153 22.307 44.9893 28.8866 41.1967 34.4519C37.4042 40.0172 32.0215 44.3094 25.7515 46.7679Z" stroke="#29AAE3" stroke-width="3" stroke-linecap="round" stroke-linejoin="round"/>
<path d="M29.6984 19.3115H19.3114C17.3993 19.3115 15.8491 20.8617 15.8491 22.7738V29.6985C15.8491 31.6107 17.3993 33.1608 19.3114 33.1608H29.6984C31.6106 33.1608 33.1607 31.6107 33.1607 29.6985V22.7738C33.1607 20.8617 31.6106 19.3115 29.6984 19.3115Z" stroke="#29AAE3" stroke-width="3" stroke-linecap="round" stroke-linejoin="round"/>
<path d="M29.6985 19.3116V15.8492C29.6985 15.1672 29.5642 14.4919 29.3032 13.8618C29.0422 13.2317 28.6596 12.6592 28.1774 12.1769C27.6951 11.6946 27.1226 11.3121 26.4925 11.0511C25.8624 10.7901 25.187 10.6558 24.505 10.6558C23.823 10.6558 23.1477 10.7901 22.5175 11.0511C21.8874 11.3121 21.3149 11.6946 20.8327 12.1769C20.3504 12.6592 19.9679 13.2317 19.7069 13.8618C19.4459 14.4919 19.3115 15.1672 19.3115 15.8492V19.3116" stroke="#29AAE3" stroke-width="3" stroke-linecap="round" stroke-linejoin="round"/>
</svg>
