<svg width="40" height="45" viewBox="0 0 40 45" fill="none" xmlns="http://www.w3.org/2000/svg">
<path d="M8.4375 30.9375C8.4375 30.1916 8.73382 29.4762 9.26126 28.9488C9.78871 28.4213 10.5041 28.125 11.25 28.125C11.9959 28.125 12.7113 28.4213 13.2387 28.9488C13.7662 29.4762 14.0625 30.1916 14.0625 30.9375V33.75C14.0625 34.4959 13.7662 35.2113 13.2387 35.7387C12.7113 36.2662 11.9959 36.5625 11.25 36.5625C10.5041 36.5625 9.78871 36.2662 9.26126 35.7387C8.73382 35.2113 8.4375 34.4959 8.4375 33.75V30.9375ZM25.3125 19.6875C25.3125 18.9416 25.6088 18.2262 26.1363 17.6988C26.6637 17.1713 27.3791 16.875 28.125 16.875C28.8709 16.875 29.5863 17.1713 30.1137 17.6988C30.6412 18.2262 30.9375 18.9416 30.9375 19.6875V33.75C30.9375 34.4959 30.6412 35.2113 30.1137 35.7387C29.5863 36.2662 28.8709 36.5625 28.125 36.5625C27.3791 36.5625 26.6637 36.2662 26.1363 35.7387C25.6088 35.2113 25.3125 34.4959 25.3125 33.75V19.6875ZM16.875 25.3125C16.875 24.5666 17.1713 23.8512 17.6988 23.3238C18.2262 22.7963 18.9416 22.5 19.6875 22.5C20.4334 22.5 21.1488 22.7963 21.6762 23.3238C22.2037 23.8512 22.5 24.5666 22.5 25.3125V33.75C22.5 34.4959 22.2037 35.2113 21.6762 35.7387C21.1488 36.2662 20.4334 36.5625 19.6875 36.5625C18.9416 36.5625 18.2262 36.2662 17.6988 35.7387C17.1713 35.2113 16.875 34.4959 16.875 33.75V25.3125Z" fill="#29AAE3"/>
<path d="M8.4375 4.21875H5.625C4.13316 4.21875 2.70242 4.81138 1.64752 5.86627C0.592632 6.92117 0 8.35191 0 9.84375V39.375C0 40.8668 0.592632 42.2976 1.64752 43.3525C2.70242 44.4074 4.13316 45 5.625 45H33.75C35.2418 45 36.6726 44.4074 37.7275 43.3525C38.7824 42.2976 39.375 40.8668 39.375 39.375V9.84375C39.375 8.35191 38.7824 6.92117 37.7275 5.86627C36.6726 4.81138 35.2418 4.21875 33.75 4.21875H30.9375V7.03125H33.75C34.4959 7.03125 35.2113 7.32757 35.7387 7.85501C36.2662 8.38246 36.5625 9.09783 36.5625 9.84375V39.375C36.5625 40.1209 36.2662 40.8363 35.7387 41.3637C35.2113 41.8912 34.4959 42.1875 33.75 42.1875H5.625C4.87908 42.1875 4.16371 41.8912 3.63626 41.3637C3.10882 40.8363 2.8125 40.1209 2.8125 39.375V9.84375C2.8125 9.09783 3.10882 8.38246 3.63626 7.85501C4.16371 7.32757 4.87908 7.03125 5.625 7.03125H8.4375V4.21875Z" fill="#29AAE3"/>
<path d="M23.9062 2.8125C24.2792 2.8125 24.6369 2.96066 24.9006 3.22438C25.1643 3.4881 25.3125 3.84579 25.3125 4.21875V7.03125C25.3125 7.40421 25.1643 7.7619 24.9006 8.02562C24.6369 8.28934 24.2792 8.4375 23.9062 8.4375H15.4688C15.0958 8.4375 14.7381 8.28934 14.4744 8.02562C14.2107 7.7619 14.0625 7.40421 14.0625 7.03125V4.21875C14.0625 3.84579 14.2107 3.4881 14.4744 3.22438C14.7381 2.96066 15.0958 2.8125 15.4688 2.8125H23.9062ZM15.4688 0C14.3499 0 13.2768 0.444474 12.4856 1.23564C11.6945 2.02681 11.25 3.09987 11.25 4.21875V7.03125C11.25 8.15013 11.6945 9.22319 12.4856 10.0144C13.2768 10.8055 14.3499 11.25 15.4688 11.25H23.9062C25.0251 11.25 26.0982 10.8055 26.8894 10.0144C27.6805 9.22319 28.125 8.15013 28.125 7.03125V4.21875C28.125 3.09987 27.6805 2.02681 26.8894 1.23564C26.0982 0.444474 25.0251 0 23.9062 0L15.4688 0Z" fill="#29AAE3"/>
</svg>
