<svg width="360" height="80" viewBox="0 0 360 80" fill="none" xmlns="http://www.w3.org/2000/svg">
<mask id="path-1-inside-1_91_338" fill="white">
<path d="M0 0H360V80H0V0Z"/>
</mask>
<path d="M360 79H0V81H360V79Z" fill="#E6E9F5" mask="url(#path-1-inside-1_91_338)"/>
<path fill-rule="evenodd" clip-rule="evenodd" d="M181.613 31.361C180.681 30.575 179.319 30.575 178.387 31.361L177.539 32.0769C177.143 32.411 176.654 32.6139 176.137 32.6576L175.032 32.7511C173.817 32.8538 172.854 33.8172 172.751 35.0315L172.658 36.1375C172.614 36.6536 172.411 37.1435 172.077 37.5393L171.361 38.3875C170.575 39.3188 170.575 40.6812 171.361 41.6125L172.077 42.4607C172.411 42.8565 172.614 43.3464 172.658 43.8625L172.751 44.9685C172.854 46.1829 173.817 47.1462 175.032 47.2489L176.137 47.3424C176.654 47.3861 177.143 47.589 177.539 47.9231L178.387 48.639C179.319 49.425 180.681 49.425 181.613 48.639L182.461 47.9231C182.856 47.589 183.346 47.3861 183.863 47.3424L184.969 47.2489C186.183 47.1462 187.146 46.1829 187.249 44.9685L187.342 43.8625C187.386 43.3464 187.589 42.8565 187.923 42.4607L188.639 41.6125C189.425 40.6812 189.425 39.3188 188.639 38.3875L187.923 37.5393C187.589 37.1435 187.386 36.6536 187.342 36.1375L187.249 35.0315C187.146 33.8172 186.183 32.8538 184.969 32.7511L183.863 32.6576C183.346 32.6139 182.856 32.411 182.461 32.0769L181.613 31.361ZM184.546 38.2955C184.985 37.8562 184.985 37.1439 184.546 36.7046C184.107 36.2652 183.394 36.2652 182.955 36.7046L178.751 40.9091L177.046 39.2046C176.607 38.7652 175.894 38.7652 175.455 39.2046C175.016 39.6439 175.016 40.3562 175.455 40.7956L177.955 43.2955C178.394 43.7349 179.107 43.7349 179.546 43.2955L184.546 38.2955Z" fill="#0473BA"/>
</svg>
