<svg width="44" height="44" viewBox="0 0 44 44" fill="none" xmlns="http://www.w3.org/2000/svg">
<path fill-rule="evenodd" clip-rule="evenodd" d="M19.8 4.4C18.9333 4.4 18.075 4.57071 17.2743 4.9024C16.4735 5.23408 15.746 5.72023 15.1331 6.3331C14.5202 6.94596 14.0341 7.67354 13.7024 8.47429C13.3707 9.27504 13.2 10.1333 13.2 11C13.2 11.8667 13.3707 12.725 13.7024 13.5257C14.0341 14.3265 14.5202 15.054 15.1331 15.6669C15.746 16.2798 16.4735 16.7659 17.2743 17.0976C18.075 17.4293 18.9333 17.6 19.8 17.6C21.5504 17.6 23.2292 16.9046 24.4669 15.6669C25.7046 14.4292 26.4 12.7504 26.4 11C26.4 9.24957 25.7046 7.57084 24.4669 6.3331C23.2292 5.09536 21.5504 4.4 19.8 4.4ZM8.8 11C8.8 8.08262 9.95893 5.28473 12.0218 3.22183C14.0847 1.15893 16.8826 0 19.8 0C22.7174 0 25.5153 1.15893 27.5782 3.22183C29.6411 5.28473 30.8 8.08262 30.8 11C30.8 13.9174 29.6411 16.7153 27.5782 18.7782C25.5153 20.8411 22.7174 22 19.8 22C16.8826 22 14.0847 20.8411 12.0218 18.7782C9.95893 16.7153 8.8 13.9174 8.8 11ZM5.3086 34.3222C4.598 35.2242 4.4 35.9062 4.4 36.3C4.4 36.5684 4.4814 36.8522 4.961 37.2372C5.5088 37.6772 6.4614 38.1326 7.9178 38.5176C10.8174 39.2876 14.9842 39.6 19.8 39.6C20.2884 39.6 20.7702 39.5956 21.2476 39.589C21.8311 39.5811 22.3938 39.8054 22.8119 40.2124C23.2301 40.6194 23.4694 41.1758 23.4773 41.7593C23.4852 42.3428 23.2609 42.9055 22.8539 43.3236C22.4469 43.7418 21.8905 43.9811 21.307 43.989C20.8098 43.9956 20.306 44 19.8 44C14.8962 44 10.263 43.692 6.7914 42.7724C5.0644 42.3148 3.4386 41.6592 2.2066 40.6692C0.902 39.622 0 38.159 0 36.3C0 34.5686 0.7876 32.9494 1.8568 31.5942C2.9436 30.2192 4.4462 28.9542 6.2084 27.8762C9.735 25.7268 14.531 24.2 19.8 24.2C20.7834 24.2 21.7514 24.2528 22.6952 24.354C23.2755 24.4156 23.8075 24.7051 24.1743 25.1589C24.5411 25.6128 24.7126 26.1937 24.651 26.774C24.5894 27.3543 24.2999 27.8863 23.8461 28.2531C23.3922 28.6199 22.8113 28.7914 22.231 28.7298C21.439 28.644 20.625 28.6 19.8 28.6C15.3494 28.6 11.3454 29.898 8.5008 31.6338C7.0774 32.5006 6.0016 33.4422 5.3086 34.3222ZM35.8952 26.5122C35.4439 26.3619 34.9561 26.3619 34.5048 26.5122L27.9048 28.7122C27.4665 28.8582 27.0854 29.1384 26.8153 29.5131C26.5452 29.8878 26.3999 30.3381 26.4 30.8V34.4762C26.3997 36.8294 27.2672 39.1 28.8364 40.8535C30.4056 42.6071 32.5664 43.7203 34.9052 43.9802C35.1032 44.0022 35.299 44.0022 35.4948 43.9802C37.8336 43.7203 39.9944 42.6071 41.5636 40.8535C43.1328 39.1 44.0003 36.8294 44 34.4762V30.8C44.0001 30.3381 43.8548 29.8878 43.5847 29.5131C43.3146 29.1384 42.9335 28.8582 42.4952 28.7122L35.8952 26.5122ZM30.8 34.4762V32.3862L35.2 30.9188L39.6 32.3862V34.4762C39.6 37.0436 37.719 39.2062 35.2 39.5824C33.9767 39.4 32.8596 38.7844 32.0521 37.8476C31.2445 36.9108 30.8002 35.7152 30.8 34.4784V34.4762Z" fill="#29AAE3"/>
</svg>
