<svg width="50" height="34" viewBox="0 0 50 34" fill="none" xmlns="http://www.w3.org/2000/svg">
<path fill-rule="evenodd" clip-rule="evenodd" d="M25.1818 32C33.7182 32 41.4445 27.0009 48.3636 17C41.4445 6.99909 33.7182 2 25.1818 2C16.6455 2 8.91909 6.99909 2 17C8.91909 27.0009 16.6455 32 25.1818 32Z" stroke="#29AAE3" stroke-width="3" stroke-linecap="round" stroke-linejoin="round"/>
<path fill-rule="evenodd" clip-rule="evenodd" d="M25.1818 7.45459C25.6864 7.45459 26.18 7.49277 26.6627 7.56913C26.4598 8.65756 26.525 9.77903 26.8527 10.8366C27.1804 11.8942 27.7606 12.8561 28.5434 13.6391C29.3262 14.4221 30.2878 15.0028 31.3453 15.3308C32.4028 15.6588 33.5242 15.7244 34.6127 15.5219C34.9149 17.4495 34.6191 19.4234 33.7651 21.1777C32.9112 22.932 31.5402 24.3826 29.8367 25.3339C28.1332 26.2853 26.1791 26.6918 24.2375 26.4986C22.296 26.3055 20.4603 25.522 18.9776 24.2537C17.4949 22.9854 16.4365 21.2932 15.9449 19.405C15.4533 17.5168 15.5522 15.5233 16.2281 13.693C16.9041 11.8627 18.1247 10.2836 19.7256 9.16815C21.3264 8.05275 23.2307 7.45471 25.1818 7.45459Z" stroke="#29AAE3" stroke-width="3" stroke-linecap="round" stroke-linejoin="round"/>
</svg>
